<?xml version="1.0" encoding="UTF-8" standalone="no"?>
<!-- Created with Inkscape (http://www.inkscape.org/) -->

<svg
   version="1.1"
   id="svg198"
   width="1675.7395"
   height="1465.4216"
   viewBox="0 0 1675.7395 1465.4216"
   sodipodi:docname="Boat5b.svg"
   inkscape:version="1.2.2 (732a01da63, 2022-12-09, custom)"
   xmlns:inkscape="http://www.inkscape.org/namespaces/inkscape"
   xmlns:sodipodi="http://sodipodi.sourceforge.net/DTD/sodipodi-0.dtd"
   xmlns="http://www.w3.org/2000/svg"
   xmlns:svg="http://www.w3.org/2000/svg">
  <defs
     id="defs202" />
  <sodipodi:namedview
     id="namedview200"
     pagecolor="#ffffff"
     bordercolor="#000000"
     borderopacity="0.25"
     inkscape:showpageshadow="2"
     inkscape:pageopacity="0.0"
     inkscape:pagecheckerboard="0"
     inkscape:deskcolor="#d1d1d1"
     showgrid="false"
     inkscape:zoom="0.53350515"
     inkscape:cx="781.6232"
     inkscape:cy="747.88406"
     inkscape:window-width="1920"
     inkscape:window-height="1031"
     inkscape:window-x="0"
     inkscape:window-y="25"
     inkscape:window-maximized="1"
     inkscape:current-layer="layer1" />
  <g
     inkscape:groupmode="layer"
     id="layer1"
     inkscape:label="Layer 1"
     style="fill:#c87137">
    <path
       id="path316"
       style="fill:#000000;stroke-width:1.33333"
       d="m 1014.658,28.221714 c -3.8637,-0.150259 -9.2062,0.02734 -16.59572,0.02734 h -25.11133 l -0.86328,10.201171 c -0.47428,5.610628 -0.86133,18.420131 -0.86133,28.464844 v 18.263672 l -14.33398,9.1875 C 866.44795,152.3446 749.10719,260.19314 646.43142,379.7139 560.13863,480.16391 481.78198,590.97474 416.94314,704.24906 348.88297,823.15108 286.93975,958.64774 247.52713,1074.8369 c -5.67895,16.7416 -7.69761,21.31 -8.54297,19.334 -0.60879,-1.423 -3.39579,-8.2872 -6.19336,-15.2539 l -5.08594,-12.6679 -34.90625,-0.3555 c -23.40532,-0.2384 -34.90625,0.1 -34.90625,1.0254 0,5.3428 32.26741,89.1899 52.40039,136.1621 43.83813,102.2784 87.36989,184.7279 137.36133,260.168 l 20.10156,30.3339 h 649.76366 649.7656 l 7.3555,-11.4003 c 38.267,-59.3186 78.4399,-149.297 100.5742,-225.2657 4.9524,-16.998 14.6778,-55.8018 14.6778,-58.5625 0,-1.8633 -3.9719,-2.1054 -34.6407,-2.1054 h -34.6425 l -0.8125,3.6679 c -2.2204,10.0024 -8.8775,34.4122 -9.9102,36.3418 -1.2245,2.2879 -1.9184,2.3818 -53.9941,7.2735 -147.4222,13.8476 -385.6784,24.6042 -512.5039,23.1386 l -36.504,-0.4218 363.17,-73.1602 c 199.7432,-40.2378 363.3451,-73.3113 363.5586,-73.498 0.5729,-0.5011 -12.6545,-52.7189 -13.5918,-53.6563 -0.4399,-0.4398 -13.0708,1.4601 -28.0684,4.2227 -14.9976,2.7625 -27.8227,4.8147 -28.5019,4.5586 -1.8514,-0.6978 -22.3746,-24.391 -41.9844,-48.4668 -93.4826,-114.77428 -176.5885,-253.71652 -233.2715,-390.00004 -46.3995,-111.55799 -85.3319,-251.94983 -104.2676,-376 -1.8471,-12.09997 -3.6909,-23.96733 -4.0976,-26.3711 l -0.7383,-4.36914 19.4062,-9.23047 19.4082,-9.23046 -2.5644,-6.39844 c -4.2356,-10.57057 -18.8196,-44.88201 -19.2676,-45.33008 -0.2293,-0.22927 -15.7585,6.50763 -34.5098,14.9707 l -34.0937,15.38868 -151.1231,-59.8379 -151.1211,-59.835933 -0.3261,-17.876953 c -0.3644,-20.047832 1.3488,-23.455475 -10.2422,-23.90625 z m 10.6719,102.898436 c 0.2076,-0.25472 30.8691,11.50967 68.1367,26.14453 37.2672,14.63489 89.8067,35.24379 116.7539,45.79688 26.9473,10.55309 49,19.53975 49,19.9707 0,0.43094 -4.0442,2.64315 -8.9942,4.91602 -4.95,2.27282 -56.7,27.26461 -115,55.53711 -58.2997,28.27245 -106.45,51.41096 -107,51.41796 -0.55,0.007 -1.0427,-9.13701 -1.0937,-20.32031 -0.051,-11.18331 -0.5626,-56.93283 -1.1367,-101.66601 -0.5744,-44.73321 -0.8735,-81.54217 -0.666,-81.79688 z m -55.62504,45.79688 0.0781,26 c 0.0438,14.29996 -2.29335,236.52873 -5.19336,493.84179 -2.90002,257.31307 -5.49887,468.07108 -5.77735,468.34958 -0.74352,0.7435 -15.6908,-52.7058 -24.84961,-88.8593 -24.09419,-95.10983 -40.78025,-189.04852 -48.66992,-274.00004 -6.17503,-66.48894 -6.2207,-140.85577 -0.12109,-198 19.19361,-179.81565 40.77023,-299.84868 69.38476,-386 5.35857,-16.13331 10.95888,-32.03205 12.44532,-35.33203 z m 58.97264,238.66601 7.7403,8.29688 c 14.7232,15.78268 21.7011,35.83718 21.7011,62.36914 0,18.86718 -2.9145,31.9301 -10.2011,45.73437 h 0 c -2.5934,4.91298 -7.6113,12.20154 -11.1504,16.19727 l -6.4355,7.26562 -0.8848,-35.26562 c -0.4865,-19.39569 -0.8591,-50.86501 -0.8281,-69.93164 z m 3.6289,197.94531 c 0.104,-8.6e-4 0.2151,0.0351 0.3321,0.0977 1.1435,0.61203 6.3593,5.61845 11.5918,11.12695 20.5689,21.65382 28.8184,53.51095 22.2402,85.88672 -2.4644,12.12862 -10.394,29.18771 -17.4824,37.60938 -2.7775,3.29998 -7.5498,8.27116 -10.6036,11.04687 l -5.5507,5.04688 -0.8008,-16.38086 c -0.4402,-9.00905 -0.9515,-43.16976 -1.1367,-75.91406 -0.2841,-50.23175 -0.1497,-58.50655 1.4101,-58.51954 z m 0.8262,201.70313 c 0.3324,-0.33234 4.8151,3.6669 9.9629,8.88672 7.098,7.19716 10.8308,12.46735 15.4433,21.81055 8.19,16.58992 10.4536,27.96106 9.6231,48.32031 -1.0426,25.56126 -8.0188,43.12965 -23.8496,60.05273 -4.4321,4.73798 -8.492,8.61524 -9.0215,8.61524 -1.0301,0 -3.1735,-146.67022 -2.1582,-147.68555 z m 3.5293,216.54102 c 0.3216,0.01 0.7136,0.2012 1.1953,0.459 4.1378,2.2145 16.63,18.5102 21.2402,27.707 7.0347,14.0338 9.8739,28.9191 9.086,47.6445 -0.7442,17.684 -3.6204,29.1237 -10.668,42.4454 -2.2636,4.2786 -7.8048,11.7527 -12.3144,16.6074 l -8.1993,8.8261 -0.8867,-51.2734 c -0.4874,-28.2 -0.8857,-60.7427 -0.8867,-72.3183 -0,-16.6906 0.04,-20.1318 1.4336,-20.0977 z m -564.04493,103.0781 c 58.92572,-0.4297 115.55475,2.8257 155.27539,9.5039 69.99059,11.7675 154.4473,41.3894 239.63672,84.0469 22.27722,11.155 62.14956,32.6502 64.29687,34.6621 1.18757,1.1126 -14.21954,1.2824 -28.59961,0.3164 -3.29999,-0.2217 -17.40065,-1.0506 -31.33398,-1.8418 -190.92409,-10.8419 -405.68128,-49.904 -566,-102.9512 l -24.66602,-8.1621 6,-1.0957 c 12.16085,-2.2209 57.348,-7.6819 80,-9.6679 33.85385,-2.9683 70.0352,-4.5528 105.39063,-4.8106 z"
       transform="translate(-157.89236,-28.161167)" />
    <g
       id="layer4"
       inkscape:label="Body"
       style="display:inline">
      <path
         style="fill:#6c5353;stroke-width:1.33333"
         d="m 1203.2257,300.20932 c 83.2333,-40.52508 161.662,-78.65665 174.2858,-84.73682 l 22.9526,-11.05487 -5.5284,-13.41744 c -3.0406,-7.3796 -5.9888,-13.41745 -6.5516,-13.41745 -0.563,0 -14.4026,6.04002 -30.7548,13.42228 l -29.7313,13.42229 -93.3362,-36.95044 C 1183.2269,147.15414 1116.3257,120.65164 1085.8923,108.58246 1055.459,96.513266 1029.209,86.115782 1027.559,85.476937 l -3,-1.161535 v 15.691248 15.69125 l 134,52.54488 c 73.7,28.89968 134,52.91358 134,53.36424 0,0.45064 -59.55,29.63952 -132.3333,64.86414 l -132.3333,64.0448 -0.3779,15.7891 c -0.2078,8.68401 -0.072,16.58701 0.3026,17.56222 0.5043,1.31426 3.7076,0.2528 12.3778,-4.10144 6.4336,-3.23101 79.7974,-39.03145 163.0308,-79.55652 z"
         transform="translate(-157.89236,-28.161167)"
         id="path390" />
      <path
         style="fill:#6c5353;stroke-width:1.33333"
         d="m 1428.7003,1187.6094 c 212.8042,-42.8854 387.2458,-78.3026 387.6482,-78.705 0.4022,-0.4023 -0.7731,-6.8643 -2.612,-14.3599 -3.1375,-12.7891 -3.5392,-13.606 -6.522,-13.2644 -3.5144,0.4024 -761.524,139.8554 -766.3222,140.9822 -2.9565,0.6944 -3,1.0131 -3,22.0125 0,17.7876 0.3215,21.308 1.9458,21.308 1.0702,0 176.0582,-35.0881 388.8622,-77.9734 z"
         transform="translate(-157.89236,-28.161167)"
         id="path372" />
      <path
         style="fill:#6c5353;stroke-width:1.33333"
         d="m 1023.9911,1239.9161 c -0.4309,-14.85 -3.5169,-287.40003 -6.8578,-605.6667 -3.3408,-318.26666 -6.3799,-581.816667 -6.7535,-585.666667 l -0.6793,-7 h -11.76982 -11.7698 l -0.75196,16.333333 c -0.41358,8.983333 -3.46374,274.033334 -6.77816,589.000004 -3.3144,314.96667 -6.28422,582.99483 -6.5996,595.61823 l -0.57341,22.9515 12.21731,0.4384 c 6.71952,0.2412 18.71584,0.563 26.65844,0.7152 l 14.4411,0.2767 z"
         transform="translate(-157.89236,-28.161167)"
         id="path370" />
      <path
         style="fill:#6c5353;stroke-width:1.33333"
         d="m 1335.2257,1333.5892 c 123.7846,-1.6232 267.0478,-5.4506 330.2144,-8.8219 l 16.2142,-0.8655 6.3947,-17.4928 c 6.5655,-17.9603 17.8839,-53.225 17.2784,-53.8338 -0.1865,-0.1876 -8.6857,0.533 -18.8871,1.6013 -83.2406,8.7167 -218.7508,17.5964 -336.548,22.0532 -146.1279,5.5287 -356.99354,5.5229 -459.99994,-0.013 -209.39596,-11.2531 -427.02494,-50.5292 -597.90629,-107.9058 -13.14847,-4.4148 -24.10635,-7.8269 -24.35084,-7.5824 -0.60483,0.6048 1.83124,6.3213 16.36512,38.4027 11.63044,25.6724 33.40039,71.7374 34.35247,72.6895 0.90765,0.9077 41.14104,8.6118 71.20636,13.635 123.91468,20.7032 273.76906,35.4506 434.33318,42.7434 126.00986,5.7235 325.51404,7.8263 511.33334,5.3898 z"
         transform="translate(-157.89236,-28.161167)"
         id="path368" />
      <path
         style="fill:#6c5353;stroke-width:1.33333"
         d="m 1491.8923,1402.9768 c 74.0667,-0.8048 139.5496,-1.796 145.5176,-2.2027 l 10.851,-0.7392 7.6572,-16.1857 c 8.411,-17.7795 19.3076,-43.2948 19.3076,-45.2108 0,-0.6902 -3.8967,-0.882 -9,-0.4434 -10.7948,0.9282 -102.708,4.146 -173,6.0568 -219.2961,5.9615 -508.62066,4.8038 -673.33334,-2.6941 -175.97936,-8.0108 -355.38845,-26.9646 -474.47905,-50.1266 -9.43015,-1.8341 -17.4516,-3.0288 -17.82545,-2.6549 -0.74892,0.7489 24.94528,49.5694 39.3707,74.8066 l 9.1455,16 15.22749,1.5938 c 90.82143,9.506 285.78596,20.0991 433.89415,23.5748 40.01524,0.9391 539.2252,-0.3898 666.6666,-1.7746 z"
         transform="translate(-157.89236,-28.161167)"
         id="path366" />
      <path
         style="fill:#6c5353;stroke-width:1.33333"
         d="m 1672.4231,1459.5957 c 29.6451,-49.3307 57.9827,-110.9907 78.1392,-170.0234 8.4651,-24.7915 21.9967,-72.0629 21.9967,-76.8429 v -3.1466 h -19.9213 c -11.542,0 -20.2603,0.5484 -20.7271,1.3038 -0.4432,0.7171 -4.1111,13.1671 -8.1507,27.6666 -13.1029,47.0298 -29.3317,92.4777 -48.4553,135.6962 -10.4788,23.6816 -35.8112,73.1936 -46.5285,90.9394 -4.5194,7.4832 -8.2171,13.9332 -8.2171,14.3333 0,0.4 8.8768,0.7273 19.7261,0.7273 h 19.7263 z"
         transform="translate(-157.89236,-28.161167)"
         id="path364" />
      <path
         style="fill:#6c5353;stroke-width:1.33333"
         d="m 1614.7847,1461.9069 c 5.9908,-10.0783 14.3454,-24.8735 18.5656,-32.8781 l 7.6731,-14.5539 -71.2321,0.8755 c -317.324,3.9002 -733.37803,4.4405 -819.23227,1.064 -151.95849,-5.9764 -227.70283,-10.3871 -337.72053,-19.6658 -14.14631,-1.193 -26.02608,-1.8637 -26.39954,-1.4902 -0.63993,0.64 7.35088,14.3826 18.79526,32.3244 9.75377,15.2913 31.65734,48.014 33.69157,50.3333 1.94324,2.2156 31.39704,2.3329 583.50651,2.3241 l 581.46,-0.013 10.8924,-18.3241 z"
         transform="translate(-157.89236,-28.161167)"
         id="path362" />
      <path
         style="fill:#6c5353;stroke-width:1.33333"
         d="m 422.39462,1478.5828 c -0.54366,-0.9167 -6.27,-9.5872 -12.7252,-19.268 -49.30512,-73.9419 -100.4907,-169.3854 -145.72771,-271.732 -7.13089,-16.1334 -13.77111,-31.1334 -14.75604,-33.3334 -1.411,-3.1517 -17.50725,-42.0499 -29.38008,-71 l -1.77716,-4.3333 h -20.73469 c -11.4041,0 -20.73471,0.3056 -20.73471,0.6791 0,1.5045 16.88433,46.7711 25.53472,68.4581 48.59869,121.8397 109.97305,240.9885 164.76344,319.8628 l 8.5674,12.3333 h 23.97924 c 18.82169,0 23.76664,-0.3585 22.99079,-1.6666 z"
         transform="translate(-157.89236,-28.161167)"
         id="path360" />
    </g>
    <g
       id="layer2"
       inkscape:label="Sail"
       style="fill:#ffe680">
      <path
         style="fill:#ffe680;stroke-width:1.33333"
         d="m 1378.8086,1146.1816 c 185.396,-34.1374 344.2768,-63.4102 353.0683,-65.0507 l 15.9845,-2.9828 -6.0733,-6.616 c -13.9387,-15.1845 -43.0127,-51.0885 -64.7403,-79.94933 -95.8655,-127.33795 -174.8692,-271.90331 -225.6363,-412.88169 -36.3433,-100.9241 -65.0774,-213.64186 -81.01,-317.78501 -2.0194,-13.2 -3.7905,-24.18036 -3.9357,-24.4008 -0.1452,-0.22043 -67.6836,32.41921 -150.0854,72.53253 -82.4018,40.11334 -157.8236,76.7793 -167.6041,81.47991 l -17.7827,8.54657 9.2157,8.9209 c 22.2545,21.54254 31.7398,45.54449 31.452,79.58756 -0.1745,20.64034 -2.9544,32.83218 -11.4005,50 -4.5217,9.19086 -7.9192,13.68746 -17.9721,23.78632 l -12.3964,12.453 v 10.43657 10.43659 l 10.3334,7.87398 c 18.4687,14.07319 32.5898,34.5711 38.3582,55.6802 3.4159,12.50024 4.1248,40.4924 1.3704,54.10854 -5.4291,26.83756 -20.8665,50.54541 -42.4712,65.2248 -4.8133,3.2704 -4.9054,3.49696 -4.8806,12 l 0.025,8.66666 6.6967,4.54335 c 16.9708,11.51375 32.5359,33.75215 38.8153,55.45665 2.6782,9.2572 3.0819,13.57371 3.0554,32.66667 -0.03,21.37275 -0.1554,22.36115 -4.4116,34.66667 -7.0167,20.28658 -17.1078,35.07824 -32.5739,47.74717 l -9.455,7.74496 0.3088,15.9206 c 0.3024,15.59163 0.3831,15.97513 3.9022,18.55693 20.9406,15.3632 35.7521,38.7026 40.9886,64.5885 3.0346,15.0007 2.0975,41.9494 -1.9278,55.4419 -5.9521,19.951 -17.6079,37.829 -32.7398,50.2173 l -8.692,7.116 -0.018,7.6667 c -0.016,6.701 0.3075,7.6666 2.5651,7.6666 1.4206,0 154.2706,-27.9305 339.6667,-62.0678 z"
         transform="translate(-157.89236,-28.161167)"
         id="path378" />
      <path
         style="fill:#ffe680;stroke-width:1.33333"
         d="m 958.41607,1237.9161 0.91381,-23.6667 -9.45966,-30.6666 c -42.051,-136.3224 -68.81286,-271.06029 -80.24312,-404.00006 -2.35043,-27.33674 -2.34255,-134.19895 0.012,-156.66667 25.31844,-241.64079 52.76394,-376.77105 95.09086,-468.18791 l 6.56915,-14.18792 -0.36981,-19.54481 -0.37027,-19.54482 -19.98245,13.54088 C 888.47972,157.07072 824.30232,212.31203 749.88167,287.74152 569.43214,470.63719 426.01124,684.26502 318.52842,930.2494 c -22.87344,52.34799 -49.39422,121.2469 -64.71923,168.1354 l -5.70947,17.4688 4.25716,10.561 c 2.34144,5.8086 5.34887,11.2428 6.68318,12.0761 1.86964,1.1676 6.67945,0.7999 20.97249,-1.6032 62.05789,-10.4342 126.40199,-15.3027 202.26468,-15.304 109.07311,0 166.57072,8.1771 249.61513,35.507 65.22379,21.4652 145.43086,58.1035 208.66667,95.3183 8.43333,4.9631 15.69556,9.0576 16.13828,9.0989 0.44272,0.041 1.21616,-10.5749 1.71876,-23.5916 z"
         transform="translate(-157.89236,-28.161167)"
         id="path376" />
    </g>
  </g>
</svg>
