<?xml version="1.0" standalone="no"?>
<!DOCTYPE svg PUBLIC "-//W3C//DTD SVG 20010904//EN"
 "http://www.w3.org/TR/2001/REC-SVG-20010904/DTD/svg10.dtd">
<svg version="1.0" xmlns="http://www.w3.org/2000/svg"
 width="474.000000pt" height="374.000000pt" viewBox="0 0 474.000000 374.000000"
 preserveAspectRatio="xMidYMid meet">

<g transform="translate(0.000000,374.000000) scale(0.100000,-0.100000)"
fill="#000000" stroke="none">
<path d="M2245 3509 c-44 -5 -35 -6 35 -3 101 5 320 -11 383 -26 20 -6 54 -14
75 -20 20 -5 52 -12 70 -15 43 -7 140 -44 148 -56 3 -5 10 -7 15 -4 14 9 210
-86 202 -98 -3 -6 -1 -7 6 -3 6 4 25 -3 42 -14 16 -12 32 -20 35 -18 7 7 -81
59 -176 104 -253 121 -587 183 -835 153z"/>
<path d="M2028 3480 c-90 -19 -141 -35 -78 -24 115 19 221 42 195 42 -16 0
-69 -8 -117 -18z"/>
<path d="M2160 3474 c-112 -13 -193 -27 -253 -46 -38 -11 -70 -18 -73 -16 -2
3 14 10 37 17 22 7 39 14 37 17 -10 10 -230 -74 -223 -85 6 -10 -64 -43 -76
-36 -5 4 -9 2 -9 -4 0 -12 -109 -86 -116 -78 -3 3 20 19 50 37 60 34 77 51 24
24 -93 -48 -237 -156 -339 -255 -87 -85 -176 -189 -161 -189 5 0 12 7 15 15 5
11 12 12 36 4 25 -9 34 -8 46 5 21 20 11 36 -22 36 -26 0 -26 0 -8 20 10 12
24 19 31 16 7 -3 11 0 9 7 -6 16 53 80 65 72 6 -3 7 1 4 10 -5 12 -2 16 9 13
9 -2 15 0 14 4 -4 12 47 59 59 54 14 -5 47 27 38 37 -3 3 5 11 17 18 13 7 30
18 37 26 8 7 19 10 25 6 7 -3 9 -3 5 2 -4 4 0 14 10 21 23 18 33 17 26 0 -5
-13 0 -13 33 -4 59 16 116 40 135 55 9 8 31 17 50 20 18 3 59 16 92 30 32 13
60 22 63 19 2 -2 -5 -7 -16 -11 -12 -3 -24 -17 -27 -31 -3 -13 -12 -24 -19
-24 -13 0 -45 -31 -45 -45 0 -4 14 -5 30 -1 22 4 30 2 30 -9 0 -11 -11 -15
-38 -15 -21 0 -63 -5 -93 -10 -30 -6 -86 -14 -125 -19 -84 -10 -140 -42 -184
-103 -17 -23 -47 -52 -67 -66 -32 -22 -34 -26 -20 -37 15 -11 13 -15 -14 -41
-17 -16 -39 -45 -49 -64 -10 -19 -32 -44 -49 -55 -17 -11 -31 -23 -31 -27 0
-17 28 -5 100 43 135 88 174 109 200 107 22 -3 26 -9 30 -51 5 -48 19 -63 30
-31 10 26 23 -1 16 -31 -3 -13 -2 -27 4 -30 14 -9 12 -46 -6 -96 -8 -24 -16
-72 -16 -106 -1 -55 3 -68 33 -115 43 -66 59 -102 59 -133 0 -14 7 -33 15 -42
8 -10 28 -34 44 -53 32 -38 51 -37 29 2 -7 12 -13 30 -14 39 -1 9 -12 30 -24
47 -13 18 -21 34 -19 37 3 2 23 -19 45 -48 21 -28 58 -73 82 -99 39 -42 42
-48 30 -67 -11 -18 -11 -23 2 -31 8 -5 27 -10 41 -10 18 0 28 -6 32 -20 6 -23
41 -38 120 -51 32 -5 84 -23 114 -39 31 -17 64 -30 73 -30 26 0 100 -58 100
-78 0 -12 18 -28 53 -45 60 -31 85 -34 102 -11 10 14 13 13 29 -11 10 -15 20
-44 23 -64 4 -31 0 -43 -32 -81 -71 -85 -90 -161 -55 -220 11 -19 42 -80 69
-135 43 -87 55 -104 95 -129 60 -36 76 -61 76 -114 0 -95 -67 -469 -89 -496
-12 -14 -13 -20 -4 -23 8 -3 11 -14 7 -28 -8 -32 9 -60 50 -79 60 -28 136 -15
86 16 -26 17 -25 26 5 54 14 13 22 29 19 37 -6 18 50 73 124 123 38 26 54 44
59 65 4 21 11 29 27 29 31 0 70 31 190 153 58 59 110 107 114 107 17 0 88 69
103 101 9 19 28 59 43 89 14 30 40 71 57 90 59 67 78 140 37 146 -10 1 -31 12
-47 23 -16 12 -35 21 -43 21 -8 0 -51 18 -97 40 -45 22 -88 40 -95 40 -7 0
-12 14 -12 34 0 52 -22 83 -73 107 -91 40 -110 52 -145 85 -20 19 -36 41 -36
49 0 10 -10 15 -27 15 -14 0 -35 7 -45 17 -17 15 -18 15 -18 0 0 -20 -40 -23
-58 -5 -6 6 -28 17 -49 24 -29 10 -40 10 -52 1 -12 -10 -14 -9 -8 6 3 9 3 17
-2 17 -24 0 -100 -34 -126 -55 -19 -17 -34 -23 -44 -18 -9 4 -41 6 -72 5 -51
-2 -56 0 -67 23 -7 14 -12 47 -12 73 0 27 -5 53 -12 60 -7 7 -38 12 -69 12
l-57 0 10 43 c5 23 13 46 19 52 5 5 9 19 9 32 0 19 -5 23 -29 23 -39 0 -61 -9
-61 -26 0 -28 -39 -54 -80 -54 -35 0 -43 5 -60 33 -41 67 -38 131 8 174 35 33
100 66 117 59 7 -2 24 4 36 15 17 15 31 18 58 13 53 -10 67 -20 93 -66 24 -42
52 -67 63 -56 11 11 -5 65 -26 89 -32 37 -23 63 42 129 30 30 32 39 14 83 -5
12 -3 16 6 12 9 -3 24 17 44 60 30 64 30 64 72 65 48 0 119 35 126 61 6 24 34
24 60 2 15 -13 18 -14 12 -3 -7 13 -6 13 7 2 13 -10 17 -10 21 1 6 16 -38 71
-51 63 -6 -3 -25 13 -43 36 -46 59 -52 64 -75 72 -20 6 -37 20 -100 78 -29 27
-32 28 -48 13 -16 -16 -19 -15 -56 9 -36 24 -120 51 -120 38 0 -2 -11 7 -24
21 -40 43 -43 97 -5 97 10 0 19 -7 19 -15 0 -10 10 -15 28 -15 l27 -1 -29 -23
c-33 -27 -29 -41 13 -49 16 -4 50 -16 75 -28 56 -26 76 -20 76 22 0 45 -26 93
-75 138 -41 38 -42 40 -19 45 24 6 104 -28 104 -45 0 -5 11 -15 25 -21 14 -6
25 -17 25 -23 0 -21 31 -75 43 -75 7 0 30 -18 53 -39 48 -46 102 -81 127 -81
20 0 20 0 6 74 -13 62 -2 106 26 106 16 0 20 18 7 35 -12 18 -184 140 -230
163 -23 12 -53 22 -67 22 -13 0 -27 5 -31 11 -5 8 37 10 151 8 110 -3 159 -1
162 7 7 20 -110 34 -322 38 -115 3 -226 2 -245 0z m-350 -73 c-8 -5 -26 -11
-40 -15 -21 -5 -20 -3 5 9 32 15 60 20 35 6z m377 -41 c14 -11 42 -20 62 -21
20 -1 47 -4 61 -9 23 -7 24 -8 5 -14 -11 -4 -28 -12 -38 -17 -14 -7 -25 -6
-42 5 -14 9 -38 16 -55 16 -27 0 -30 3 -30 30 0 35 4 36 37 10z m-237 -55 c10
-12 10 -15 -4 -15 -9 0 -16 7 -16 15 0 8 2 15 4 15 2 0 9 -7 16 -15z m60 5 c0
-5 -2 -10 -4 -10 -3 0 -8 5 -11 10 -3 6 -1 10 4 10 6 0 11 -4 11 -10z m-134
-20 c9 0 12 -4 9 -10 -9 -14 -18 -13 -41 6 -17 14 -17 15 -1 10 10 -3 25 -6
33 -6z m194 -9 c0 -5 3 -18 7 -28 6 -16 5 -16 -10 -4 -19 15 -23 41 -7 41 6 0
10 -4 10 -9z m-93 -27 c-3 -3 -12 -4 -19 -1 -8 3 -5 6 6 6 11 1 17 -2 13 -5z
m149 -41 c-10 -10 -19 5 -10 18 6 11 8 11 12 0 2 -7 1 -15 -2 -18z m-259 -19
c-3 -3 -12 -4 -19 -1 -8 3 -5 6 6 6 11 1 17 -2 13 -5z m-517 -48 c0 -2 -8 -10
-17 -17 -16 -13 -17 -12 -4 4 13 16 21 21 21 13z m489 -29 c-2 -1 -15 -11 -29
-22 -14 -11 -22 -16 -18 -11 4 5 3 15 -3 23 -9 10 -5 13 21 13 19 0 31 -1 29
-3z m361 -27 c3 -3 13 -9 23 -13 9 -3 17 -15 17 -26 0 -11 6 -24 14 -28 18
-11 36 -47 36 -72 0 -12 7 -21 16 -21 8 0 12 -4 9 -10 -3 -5 -15 -10 -25 -10
-10 0 -20 -4 -22 -9 -5 -15 -128 -1 -128 15 0 8 6 11 15 8 8 -4 23 -3 32 0 26
11 -1 29 -40 28 -19 -1 -43 6 -53 14 -18 14 -18 14 4 4 12 -6 27 -8 33 -4 16
10 -29 37 -52 31 -19 -5 -59 18 -59 35 0 3 9 9 20 13 11 3 33 20 50 36 26 26
34 29 67 23 21 -4 40 -10 43 -14z m-260 0 c0 -5 -5 -10 -11 -10 -5 0 -7 5 -4
10 3 6 8 10 11 10 2 0 4 -4 4 -10z m-83 -25 c-8 -19 11 -31 26 -16 15 15 27
14 27 -4 0 -21 16 -19 33 6 10 13 17 17 22 9 4 -6 1 -18 -6 -26 -17 -21 -5
-28 15 -8 9 9 19 14 22 12 2 -3 -11 -20 -31 -39 -23 -22 -33 -40 -29 -51 3
-12 0 -18 -10 -18 -9 0 -16 9 -16 20 0 11 -3 20 -7 21 -5 1 -25 2 -46 3 -49 4
-55 11 -26 36 23 20 23 21 2 15 -31 -9 -40 15 -13 37 27 22 44 23 37 3z m557
-74 c3 -5 -1 -11 -9 -14 -9 -4 -12 -1 -8 9 6 16 10 17 17 5z m-294 -73 c0 -7
12 -25 27 -41 23 -23 24 -27 8 -21 -11 4 -25 11 -30 15 -6 4 -17 4 -25 -1 -8
-5 -18 -6 -22 -4 -10 6 -11 48 -1 57 11 12 43 8 43 -5z m210 -38 c0 -5 -4 -10
-10 -10 -5 0 -10 5 -10 10 0 6 5 10 10 10 6 0 10 -4 10 -10z m174 -16 c22 -9
10 -23 -14 -17 -11 3 -17 9 -14 14 6 11 8 11 28 3z m97 -24 c24 0 24 -8 -1
-40 l-19 -25 -10 28 c-6 15 -7 35 -4 44 4 11 8 12 11 5 2 -7 12 -12 23 -12z
m-450 -10 c31 -17 22 -30 -21 -30 -42 0 -52 12 -22 29 21 13 20 13 43 1z"/>
<path d="M2256 2955 c-3 -8 -1 -15 4 -15 6 0 10 7 10 15 0 8 -2 15 -4 15 -2 0
-6 -7 -10 -15z"/>
<path d="M1890 2995 c14 -16 40 -20 40 -6 0 9 -24 21 -42 21 -6 0 -6 -6 2 -15z"/>
<path d="M1634 3344 c-18 -14 -18 -14 6 -3 31 14 36 19 24 19 -6 0 -19 -7 -30
-16z"/>
<path d="M3270 3241 c0 -6 4 -11 9 -11 26 0 226 -171 226 -194 0 -6 7 -11 15
-11 17 0 21 -24 7 -43 -7 -9 -6 -17 2 -25 10 -9 11 -9 6 4 -3 9 0 21 8 27 12
10 22 4 53 -32 74 -83 105 -126 99 -136 -4 -6 -1 -9 6 -8 6 2 14 -3 17 -11 3
-9 0 -11 -8 -6 -9 5 -11 4 -6 -4 4 -6 11 -9 16 -6 17 11 146 -227 134 -247 -4
-6 -3 -8 3 -5 6 4 18 -10 27 -33 9 -22 18 -40 21 -40 9 0 -36 104 -81 188
-109 203 -272 393 -454 531 -91 70 -100 75 -100 62z"/>
<path d="M2841 3111 c-21 -13 -5 -41 23 -41 14 0 37 -5 52 -10 29 -11 64 -5
64 11 0 12 -78 49 -105 49 -11 0 -26 -4 -34 -9z"/>
<path d="M3600 2898 c0 -9 -6 -15 -12 -14 -7 0 -13 -2 -13 -5 0 -4 -8 -16 -18
-27 -14 -15 -16 -25 -8 -46 11 -27 25 -33 36 -15 4 6 14 -4 24 -23 10 -20 13
-36 7 -40 -6 -4 2 -24 18 -48 26 -40 27 -42 9 -57 -17 -14 -17 -14 5 -10 15 4
22 0 22 -10 0 -11 -5 -13 -17 -8 -10 4 -30 10 -45 12 -26 5 -26 4 -34 -74 -5
-43 -9 -82 -9 -88 0 -5 9 -11 20 -14 11 -2 25 -10 31 -19 6 -8 16 -12 22 -9 6
5 8 0 5 -13 -3 -11 -9 -17 -14 -14 -5 3 -14 2 -20 -2 -8 -5 -8 -8 0 -14 22
-13 -6 -57 -48 -76 -27 -13 -43 -27 -48 -44 -3 -14 -15 -42 -25 -64 -20 -40
-26 -74 -35 -212 -5 -78 -4 -81 21 -97 14 -10 26 -23 26 -31 0 -7 15 -30 34
-52 34 -39 34 -39 101 -36 39 1 76 9 88 17 27 19 57 19 57 0 0 -8 12 -18 26
-21 24 -6 26 -10 20 -47 -4 -22 -1 -74 5 -116 10 -68 9 -82 -9 -136 -11 -33
-23 -98 -27 -145 -4 -47 -9 -98 -12 -115 -12 -84 -15 -115 -10 -115 3 0 19 24
36 54 37 67 61 85 31 25 -69 -142 -184 -314 -210 -314 -5 0 -12 -4 -17 -9 -5
-5 -2 -6 6 -1 8 5 12 4 10 -3 -5 -13 -129 -144 -129 -136 0 3 -12 -8 -26 -25
-14 -17 -66 -61 -115 -97 -49 -37 -89 -68 -89 -71 0 -8 117 76 175 127 367
317 577 777 574 1255 0 61 -4 133 -7 160 -4 28 -7 -33 -7 -140 0 -190 -13
-308 -49 -444 -15 -54 -32 -87 -22 -41 37 165 56 317 56 453 0 86 -40 359 -60
405 -10 23 -36 30 -42 11 -3 -9 -48 63 -48 77 0 10 19 2 40 -16 30 -26 43 -25
35 3 -26 88 -120 290 -168 361 -15 21 -27 43 -27 47 0 5 -8 18 -17 28 -29 32
-39 45 -46 64 -3 9 -11 17 -17 17 -6 0 1 -23 15 -51 15 -28 25 -60 23 -72 -2
-15 -12 1 -32 51 -17 41 -30 82 -31 93 -2 23 -15 38 -15 17z m193 -423 c15
-25 27 -48 27 -50 0 -9 -105 7 -111 17 -13 20 21 78 45 78 6 0 23 -20 39 -45z
m77 -91 c0 -8 -5 -12 -10 -9 -6 4 -8 11 -5 16 9 14 15 11 15 -7z"/>
<path d="M1008 2798 c-60 -92 -85 -132 -113 -188 -43 -85 -97 -231 -91 -247 3
-8 2 -12 -3 -8 -14 8 -58 -195 -72 -330 -12 -126 -8 -285 12 -418 8 -51 15
-74 20 -65 5 7 9 8 9 2 0 -5 25 -32 56 -59 54 -46 57 -47 70 -30 19 25 18 35
-5 35 -10 0 -30 11 -45 25 -15 14 -31 25 -36 25 -5 0 -12 9 -15 21 -4 11 -13
18 -20 15 -19 -7 -27 5 -14 20 8 9 7 35 -1 91 -16 114 -17 116 -25 136 -5 12
-3 17 9 17 14 0 16 14 16 91 0 109 15 169 42 169 27 0 33 26 13 57 -14 21 -16
40 -13 95 6 76 22 109 34 65 8 -33 19 -27 44 25 25 51 37 133 21 142 -6 4 -13
1 -15 -6 -20 -72 -30 -98 -38 -98 -21 0 14 94 48 128 14 13 18 28 15 46 -1 5
3 12 9 16 9 5 9 12 -1 27 -10 17 -9 25 9 51 12 16 22 35 22 40 0 6 4 13 9 16
4 3 6 -7 3 -22 -5 -24 -4 -26 11 -13 20 16 22 38 5 43 -13 5 24 70 65 116 11
12 16 22 10 22 -5 0 -25 -24 -45 -52z"/>
<path d="M1090 2760 c0 -5 7 -10 15 -10 8 0 15 5 15 10 0 6 -7 10 -15 10 -8 0
-15 -4 -15 -10z"/>
<path d="M1017 2693 c-12 -11 -8 -23 8 -23 8 0 15 7 15 15 0 16 -12 20 -23 8z"/>
<path d="M3917 2413 c9 -21 28 -87 44 -148 15 -60 28 -99 28 -86 1 13 -13 72
-30 130 -17 58 -34 114 -36 124 -3 9 -9 17 -14 17 -4 0 -1 -17 8 -37z"/>
<path d="M2266 2221 c-16 -17 -16 -19 0 -25 10 -4 25 1 35 10 18 16 20 16 37
1 10 -10 27 -17 38 -17 10 -1 30 -7 44 -15 30 -17 60 -19 60 -4 0 16 -125 69
-163 69 -20 0 -41 -7 -51 -19z"/>
<path d="M2569 2134 c-6 -8 -20 -14 -30 -14 -11 0 -19 -5 -19 -11 0 -15 152
-8 157 7 2 6 -18 16 -47 21 -39 8 -52 7 -61 -3z"/>
<path d="M3992 2120 c0 -19 2 -27 5 -17 2 9 2 25 0 35 -3 9 -5 1 -5 -18z"/>
<path d="M2437 2114 c-10 -11 3 -24 24 -24 10 0 19 7 19 15 0 15 -31 21 -43 9z"/>
<path d="M2705 2110 c-8 -12 20 -24 35 -15 5 3 10 10 10 16 0 12 -37 12 -45
-1z"/>
<path d="M815 2029 c-11 -16 4 -97 21 -113 8 -8 14 -24 14 -36 0 -25 27 -24
43 1 7 12 2 26 -22 59 -17 24 -31 55 -31 72 0 28 -13 37 -25 17z"/>
<path d="M814 1865 c-4 -14 -3 -29 0 -33 9 -8 26 18 26 41 0 26 -19 20 -26 -8z"/>
<path d="M879 1841 c-17 -19 -10 -47 15 -63 23 -15 35 26 20 66 -8 20 -15 19
-35 -3z"/>
<path d="M796 1760 c-16 -41 -22 -159 -8 -161 4 0 14 -2 24 -4 9 -2 19 6 24
19 6 16 8 10 11 -26 4 -46 5 -48 35 -48 20 0 29 4 25 13 -18 47 -18 57 -3 51
24 -9 19 13 -6 30 l-22 16 23 0 c33 0 24 35 -10 36 -40 2 -48 11 -55 64 -4 28
-10 50 -14 50 -4 0 -15 -18 -24 -40z"/>
<path d="M1480 1780 c0 -6 15 -20 34 -31 19 -11 36 -30 40 -42 4 -16 8 -19 17
-10 18 18 1 50 -37 72 -39 23 -54 26 -54 11z"/>
<path d="M943 1684 c-11 -28 -8 -77 5 -82 8 -2 12 11 12 47 0 52 -6 64 -17 35z"/>
<path d="M975 1620 c-4 -16 -11 -31 -16 -31 -5 -1 -13 -2 -19 -3 -20 -2 -9
-21 17 -28 32 -9 43 -3 43 23 0 11 5 17 10 14 6 -3 10 -14 10 -24 0 -9 20 -30
45 -45 25 -16 46 -34 46 -40 1 -6 2 -20 3 -31 1 -13 9 -21 24 -23 12 -2 22 -8
22 -13 0 -12 47 -12 55 1 11 18 36 10 68 -23 18 -17 39 -32 47 -31 31 2 35 4
25 12 -18 12 -65 73 -65 83 0 5 17 9 39 9 30 0 42 5 55 25 20 30 20 45 1 45
-8 0 -15 -6 -15 -13 0 -15 -41 -37 -67 -37 -8 0 -37 16 -63 35 -65 48 -116 68
-154 61 -28 -5 -33 -3 -43 24 -8 21 -16 28 -27 24 -9 -3 -16 -1 -16 5 0 24
-19 9 -25 -19z"/>
<path d="M1060 1611 c0 -6 5 -13 10 -16 6 -3 10 1 10 9 0 9 -4 16 -10 16 -5 0
-10 -4 -10 -9z"/>
<path d="M2207 1593 c-13 -12 -7 -23 13 -23 11 0 20 7 20 15 0 15 -21 21 -33
8z"/>
<path d="M765 1490 c38 -189 187 -499 300 -625 l36 -40 -33 49 c-18 27 -46 67
-61 89 -23 32 -26 42 -15 51 7 6 9 7 5 2 -10 -13 45 -36 60 -24 25 19 64 -8
182 -128 68 -68 127 -124 132 -124 15 0 10 16 -11 35 -25 23 -25 33 1 37 33 5
71 109 62 173 -6 47 -54 134 -98 179 -9 8 -38 60 -66 116 -28 55 -55 100 -60
100 -5 0 -9 -18 -9 -40 0 -22 -3 -40 -6 -40 -14 0 -51 25 -76 51 -15 16 -36
29 -48 29 -11 0 -23 7 -26 15 -9 23 -18 18 -31 -15 -7 -18 -17 -28 -25 -25 -7
3 -17 1 -23 -3 -14 -10 -35 -49 -35 -65 0 -7 -9 -20 -20 -29 -23 -20 -19 -37
42 -161 41 -83 46 -121 7 -45 -78 149 -131 276 -160 383 -22 83 -37 116 -24
55z m635 -470 c0 -5 -2 -10 -4 -10 -3 0 -8 5 -11 10 -3 6 -1 10 4 10 6 0 11
-4 11 -10z"/>
<path d="M1042 1498 c6 -18 28 -21 28 -4 0 9 -7 16 -16 16 -9 0 -14 -5 -12
-12z"/>
<path d="M922 1469 c-19 -30 3 -53 24 -25 8 11 14 26 14 33 0 20 -24 15 -38
-8z"/>
<path d="M1006 1483 c-11 -11 -6 -23 9 -23 8 0 15 4 15 9 0 13 -16 22 -24 14z"/>
<path d="M1420 1479 c0 -14 41 -48 58 -49 19 0 14 20 -10 41 -26 21 -48 25
-48 8z"/>
<path d="M1495 1420 c-24 -5 -27 -8 -13 -14 23 -10 61 -4 66 12 4 13 -7 14
-53 2z"/>
<path d="M1550 1385 c-10 -12 -10 -19 -2 -27 7 -7 12 -8 12 -4 0 5 7 3 15 -4
21 -18 27 -8 16 24 -12 30 -23 33 -41 11z"/>
<path d="M1690 1231 c0 -20 27 -48 37 -37 9 8 -14 56 -27 56 -5 0 -10 -8 -10
-19z"/>
<path d="M1981 1191 c-10 -7 -10 -10 -1 -16 6 -4 16 -3 22 3 13 13 -4 23 -21
13z"/>
<path d="M1930 1160 c0 -14 7 -20 21 -20 15 0 19 4 15 16 -3 9 -6 18 -6 20 0
2 -7 4 -15 4 -8 0 -15 -9 -15 -20z"/>
<path d="M1630 1117 c0 -14 31 -47 43 -47 14 0 7 27 -11 43 -22 21 -32 21 -32
4z"/>
<path d="M1656 900 c5 -29 3 -40 -6 -40 -7 0 -10 -6 -7 -14 4 -9 -7 -17 -32
-25 -41 -12 -91 -46 -91 -62 0 -27 90 10 183 73 l27 19 -32 45 c-17 24 -35 44
-40 44 -4 0 -5 -18 -2 -40z"/>
<path d="M1110 805 c7 -9 15 -13 17 -11 7 7 -7 26 -19 26 -6 0 -6 -6 2 -15z"/>
<path d="M1151 763 c31 -41 151 -150 234 -213 85 -64 241 -158 185 -111 -14
11 -30 21 -35 21 -6 0 -26 13 -45 30 -19 16 -38 29 -42 30 -11 0 -98 68 -101
77 -1 4 -5 7 -8 6 -12 -4 -84 70 -81 81 2 6 0 8 -4 3 -4 -4 -25 9 -46 30 -31
30 -35 39 -25 52 11 14 10 14 -5 2 -12 -9 -18 -10 -18 -2 0 6 -5 11 -11 11 -8
0 -7 -6 2 -17z"/>
<path d="M2734 509 c-3 -6 -1 -16 5 -22 13 -13 42 0 49 21 5 15 -44 16 -54 1z"/>
<path d="M3204 479 c-3 -5 -2 -9 3 -9 4 0 -11 -12 -35 -26 -24 -14 -41 -28
-39 -30 3 -4 127 64 127 70 0 6 -51 2 -56 -5z"/>
<path d="M3063 411 c-28 -11 -71 -22 -95 -26 -24 -4 -74 -16 -113 -26 -74 -20
-214 -26 -231 -9 -12 12 -66 -2 -72 -18 -2 -7 3 -12 11 -12 8 0 20 -7 27 -15
11 -13 7 -15 -28 -15 -22 0 -47 -3 -56 -6 -10 -4 -16 -1 -16 9 0 12 -12 14
-62 10 -42 -3 -78 0 -108 11 -28 9 -48 12 -55 6 -7 -5 -66 -9 -133 -7 -109 2
-122 0 -135 -17 -14 -19 -16 -19 -101 8 -47 15 -84 32 -81 37 4 5 0 6 -8 3
-20 -7 -148 46 -140 59 3 6 1 7 -5 3 -6 -4 -21 -2 -33 4 -11 7 -23 9 -26 6 -8
-8 104 -57 241 -105 90 -31 127 -40 159 -36 33 4 36 3 17 -4 -21 -8 -22 -9 -5
-10 11 -1 31 -4 45 -6 22 -5 22 -4 5 4 -11 5 -14 10 -7 10 7 1 24 -6 37 -15
18 -12 35 -14 61 -9 27 5 34 3 28 -6 -5 -9 10 -11 66 -7 47 4 67 2 59 -4 -22
-15 211 0 345 23 186 31 466 131 466 165 0 8 -1 14 -2 14 -2 -1 -26 -9 -55
-19z"/>
</g>
</svg>
